<mxfile host="app.diagrams.net" modified="2023-11-01T09:43:38.581Z" agent="Mozilla/5.0 (Macintosh; Intel Mac OS X 10_15_7) AppleWebKit/605.1.15 (KHTML, like Gecko) Version/17.0 Safari/605.1.15" version="22.0.8" etag="AKyoozy1gIOVVAhoE72X" type="github">
  <diagram name="Page-1" id="oLvTEM1nEzkZ-Qc8hx-0">
    <mxGraphModel>
      <root>
        <mxCell id="0" />
        <mxCell id="1" parent="0" />
      </root>
    </mxGraphModel>
  </diagram>
</mxfile>
